<svg width="1200" height="630" viewBox="0 0 1200 630" xmlns="http://www.w3.org/2000/svg">
  <rect width="1200" height="630" fill="#F5F3EE"/>

  <!-- faint decorative grid, top-right -->
  <g stroke="#E3E0D8" stroke-width="1" opacity="0.9">
    <path d="M800 0V630 M880 0V630 M960 0V630 M1040 0V630 M1120 0V630"/>
    <path d="M800 70H1200 M800 150H1200 M800 230H1200 M800 310H1200 M800 390H1200 M800 470H1200 M800 550H1200"/>
    <circle cx="1040" cy="315" r="220" fill="none" stroke="#E3E0D8" stroke-dasharray="6 6"/>
  </g>

  <!-- icon mark -->
  <g transform="translate(80,72)">
    <rect width="64" height="64" rx="12.8" fill="#1B2A4A"/>
    <path d="M44 18.6 A18 18 0 1 0 44 45.4" fill="none" stroke="#F5F3EE" stroke-width="8.2" stroke-linecap="round"/>
  </g>

  <!-- wordmark -->
  <text x="164" y="114" fill="#1A1A18" font-family="'DejaVu Sans','Helvetica Neue',Arial,sans-serif" font-size="24" letter-spacing="6" font-weight="600">THE CITADL</text>

  <!-- headline -->
  <text fill="#1A1A18" font-family="Georgia, 'Times New Roman', serif" font-weight="400" font-size="82" letter-spacing="-1">
    <tspan x="80" y="330">Found. Or</tspan>
    <tspan x="80" y="424" font-style="italic">forgotten.</tspan>
  </text>

  <!-- subhead -->
  <text x="80" y="512" fill="#6B6A64" font-family="'DejaVu Sans','Helvetica Neue',Arial,sans-serif" font-size="26" font-weight="300">Bespoke real estate websites. MLS synced. One of one.</text>

  <!-- footer tag -->
  <text x="80" y="578" fill="#1B2A4A" font-family="'DejaVu Sans','Helvetica Neue',Arial,sans-serif" font-size="20" letter-spacing="3" font-weight="600">CUSTOM BUILT · MLS SYNC · NEVER A TEMPLATE</text>
</svg>
